<svg width="586" height="187" viewBox="0 0 586 187" fill="none" xmlns="http://www.w3.org/2000/svg">
<path d="M195.3 143.296C186.948 143.296 181.62 137.824 179.316 126.88L176.004 110.896C174.948 105.712 173.748 101.776 172.404 99.088C171.156 96.4 169.38 94.576 167.076 93.616C164.868 92.656 161.796 92.176 157.86 92.176C156.516 92.176 155.46 92.56 154.692 93.328C153.924 94 153.54 94.864 153.54 95.92V131.92C153.54 133.936 153.924 135.328 154.692 136.096C155.46 136.768 157.188 137.344 159.876 137.824L165.204 138.688C166.26 138.88 166.788 139.408 166.788 140.272C166.788 141.424 166.068 142 164.628 142H135.396C133.956 142 133.236 141.472 133.236 140.416C133.236 139.552 133.86 138.976 135.108 138.688L138.42 138.112C140.436 137.728 141.732 137.2 142.308 136.528C142.98 135.856 143.316 134.512 143.316 132.496V47.824C143.316 45.808 142.98 44.464 142.308 43.792C141.732 43.12 140.436 42.592 138.42 42.208L135.108 41.632C133.86 41.344 133.236 40.768 133.236 39.904C133.236 38.848 133.956 38.32 135.396 38.32H164.628C170.292 38.32 175.332 39.424 179.748 41.632C184.164 43.84 187.62 46.912 190.116 50.848C192.612 54.688 193.86 59.152 193.86 64.24C193.86 70.288 192.036 75.76 188.388 80.656C184.74 85.456 180.132 88.864 174.564 90.88C173.892 91.072 173.508 91.408 173.412 91.888C173.412 92.272 173.748 92.608 174.42 92.896C177.492 94.336 179.892 96.352 181.62 98.944C183.444 101.536 184.836 104.992 185.796 109.312L188.964 124C190.02 128.992 191.268 132.544 192.708 134.656C194.148 136.768 195.972 137.824 198.18 137.824C198.948 137.824 199.62 137.728 200.196 137.536C200.868 137.248 201.684 136.768 202.644 136.096C203.412 135.616 204.132 135.52 204.804 135.808C205.476 136 205.812 136.48 205.812 137.248C205.812 138.88 204.756 140.32 202.644 141.568C200.532 142.72 198.084 143.296 195.3 143.296ZM163.188 88.576C169.716 88.576 174.66 86.416 178.02 82.096C181.38 77.68 183.06 71.824 183.06 64.528C183.06 57.424 181.092 51.904 177.156 47.968C173.316 43.936 167.988 41.92 161.172 41.92C156.084 41.92 153.54 43.84 153.54 47.68V80.656C153.54 85.936 156.756 88.576 163.188 88.576ZM228.461 143.296C223.853 143.296 219.725 141.76 216.077 138.688C212.429 135.616 209.501 131.296 207.293 125.728C205.181 120.064 204.125 113.536 204.125 106.144C204.125 98.56 205.229 91.888 207.437 86.128C209.645 80.368 212.669 75.856 216.509 72.592C220.349 69.328 224.621 67.696 229.325 67.696C234.989 67.696 239.549 70.048 243.005 74.752C246.557 79.36 248.333 86.896 248.333 97.36C248.333 100.528 247.133 102.112 244.733 102.112H217.373C215.453 102.112 214.493 103.216 214.493 105.424C214.493 115.6 215.981 123.232 218.957 128.32C221.933 133.408 225.725 135.952 230.333 135.952C233.981 135.952 236.957 134.656 239.261 132.064C241.565 129.472 243.437 125.104 244.877 118.96C245.165 117.904 245.789 117.376 246.749 117.376C247.901 117.376 248.333 118.336 248.045 120.256C246.509 128.8 244.061 134.8 240.701 138.256C237.341 141.616 233.261 143.296 228.461 143.296ZM216.941 98.512H231.485C236.093 98.512 238.397 96.112 238.397 91.312C238.397 85.072 237.629 80.176 236.093 76.624C234.557 73.072 232.253 71.296 229.181 71.296C225.437 71.296 222.269 73.456 219.677 77.776C217.181 82.096 215.549 88.24 214.781 96.208C214.589 97.744 215.309 98.512 216.941 98.512ZM270.864 143.296C268.656 143.296 266.304 143.008 263.808 142.432C261.312 141.952 259.296 141.328 257.76 140.56C256.896 140.08 256.464 139.264 256.464 138.112L256.032 121.984C256.032 120.352 256.656 119.536 257.904 119.536C258.96 119.536 259.68 120.304 260.064 121.84C261.696 128.656 263.664 133.312 265.968 135.808C268.368 138.304 271.248 139.552 274.608 139.552C277.392 139.552 279.696 138.496 281.52 136.384C283.344 134.176 284.256 131.152 284.256 127.312C284.256 123.472 283.2 120.064 281.088 117.088C278.976 114.112 275.424 110.848 270.432 107.296C265.44 103.936 261.792 100.576 259.488 97.216C257.184 93.76 256.032 90.016 256.032 85.984C256.032 80.512 257.952 76.096 261.792 72.736C265.632 69.376 270.72 67.696 277.056 67.696C278.976 67.696 280.848 67.936 282.672 68.416C284.496 68.8 286.128 69.472 287.568 70.432C288.432 71.008 288.864 71.776 288.864 72.736L289.152 88.576C289.152 90.016 288.576 90.736 287.424 90.736C286.752 90.736 286.272 90.544 285.984 90.16C285.696 89.68 285.456 89.104 285.264 88.432C283.344 82.192 281.424 77.872 279.504 75.472C277.584 72.976 275.232 71.728 272.448 71.728C269.952 71.728 267.888 72.592 266.256 74.32C264.624 76.048 263.808 78.208 263.808 80.8C263.808 84.16 264.816 87.088 266.832 89.584C268.848 92.08 272.496 95.152 277.776 98.8C282.576 102.256 286.176 106 288.576 110.032C291.072 113.968 292.32 118.288 292.32 122.992C292.32 129.136 290.352 134.08 286.416 137.824C282.48 141.472 277.296 143.296 270.864 143.296ZM325.529 143.296C320.633 143.296 316.217 141.664 312.281 138.4C308.441 135.04 305.369 130.48 303.065 124.72C300.761 118.96 299.609 112.528 299.609 105.424C299.609 98.32 300.761 91.936 303.065 86.272C305.369 80.608 308.489 76.096 312.425 72.736C316.361 69.376 320.729 67.696 325.529 67.696C330.425 67.696 334.793 69.376 338.633 72.736C342.569 76.096 345.689 80.608 347.993 86.272C350.297 91.936 351.449 98.32 351.449 105.424C351.449 112.528 350.297 118.96 347.993 124.72C345.785 130.48 342.713 135.04 338.777 138.4C334.841 141.664 330.425 143.296 325.529 143.296ZM325.529 139.696C335.513 139.696 340.505 128.272 340.505 105.424C340.505 82.672 335.513 71.296 325.529 71.296C315.545 71.296 310.553 82.672 310.553 105.424C310.553 128.272 315.545 139.696 325.529 139.696ZM359.398 142C357.958 142 357.238 141.472 357.238 140.416C357.238 139.552 357.862 138.976 359.11 138.688L360.838 138.4C362.854 138.016 364.15 137.44 364.726 136.672C365.398 135.808 365.734 134.368 365.734 132.352V83.968C365.734 82.24 365.446 81.088 364.87 80.512C364.39 79.84 363.478 79.408 362.134 79.216L359.11 78.784C357.862 78.688 357.238 78.16 357.238 77.2C357.238 76.432 358.006 75.904 359.542 75.616C362.518 75.136 364.774 74.368 366.31 73.312C367.942 72.256 369.622 70.96 371.35 69.424C372.214 68.56 372.934 68.128 373.51 68.128C374.374 68.128 374.806 68.704 374.806 69.856V76.336C374.806 77.2 375.094 77.776 375.67 78.064C376.342 78.256 377.062 77.968 377.83 77.2C381.67 73.552 385.03 71.056 387.91 69.712C390.886 68.368 394.006 67.696 397.27 67.696C401.59 67.696 405.046 69.232 407.638 72.304C410.23 75.28 411.526 79.696 411.526 85.552V132.352C411.526 134.368 411.814 135.808 412.39 136.672C413.062 137.44 414.406 137.968 416.422 138.256L419.59 138.688C420.646 138.88 421.174 139.456 421.174 140.416C421.174 141.472 420.598 142 419.446 142H395.254C393.91 142 393.238 141.472 393.238 140.416C393.238 139.456 393.766 138.88 394.822 138.688L396.838 138.4C398.854 138.112 400.15 137.536 400.726 136.672C401.398 135.808 401.734 134.368 401.734 132.352V87.136C401.734 82.432 400.87 79.12 399.142 77.2C397.414 75.28 394.966 74.32 391.798 74.32C388.726 74.32 385.942 75.232 383.446 77.056C381.046 78.784 379.126 81.136 377.686 84.112C376.246 86.992 375.526 90.208 375.526 93.76V132.352C375.526 134.368 375.814 135.808 376.39 136.672C377.062 137.536 378.406 138.064 380.422 138.256L384.31 138.688C385.366 138.88 385.894 139.408 385.894 140.272C385.894 141.424 385.174 142 383.734 142H359.398ZM439.999 143.296C435.967 143.296 432.655 142.048 430.063 139.552C427.471 136.96 426.175 133.552 426.175 129.328C426.175 125.2 427.471 121.312 430.063 117.664C432.655 113.92 436.207 110.56 440.719 107.584C445.231 104.608 450.367 102.208 456.127 100.384C457.375 100 457.999 99.184 457.999 97.936V84.832C457.999 80.224 457.279 76.96 455.839 75.04C454.399 73.024 452.431 72.016 449.935 72.016C447.535 72.016 445.327 73.12 443.311 75.328C441.391 77.44 439.999 81.04 439.135 86.128C438.655 89.2 437.599 91.456 435.967 92.896C434.431 94.24 432.847 94.912 431.215 94.912C428.527 94.912 427.183 93.568 427.183 90.88C427.183 88.096 427.951 85.36 429.487 82.672C431.119 79.888 433.231 77.392 435.823 75.184C438.415 72.88 441.247 71.056 444.319 69.712C447.391 68.368 450.463 67.696 453.535 67.696C463.039 67.696 467.791 73.216 467.791 84.256V128.32C467.791 132.352 468.799 134.368 470.815 134.368C472.063 134.368 473.215 133.552 474.271 131.92C475.327 130.192 475.855 127.312 475.855 123.28C475.855 121.744 476.479 120.976 477.727 120.976C478.879 120.976 479.455 121.792 479.455 123.424C479.455 130.432 478.207 135.52 475.711 138.688C473.311 141.76 470.575 143.296 467.503 143.296C465.199 143.296 463.375 142.384 462.031 140.56C460.687 138.64 459.775 136.384 459.295 133.792C459.199 132.832 458.767 132.352 457.999 132.352C457.327 132.256 456.655 132.688 455.983 133.648C453.679 136.816 451.327 139.216 448.927 140.848C446.527 142.48 443.551 143.296 439.999 143.296ZM443.887 136.672C446.383 136.672 448.687 135.808 450.799 134.08C452.911 132.256 454.639 129.856 455.983 126.88C457.327 123.904 457.999 120.544 457.999 116.8V106.288C457.999 104.464 456.991 103.936 454.975 104.704C449.119 106.816 444.559 109.744 441.295 113.488C438.127 117.136 436.543 121.552 436.543 126.736C436.543 133.36 438.991 136.672 443.887 136.672ZM484.554 142C483.114 142 482.394 141.472 482.394 140.416C482.394 139.552 483.018 138.976 484.266 138.688L485.994 138.4C488.01 138.016 489.306 137.44 489.882 136.672C490.554 135.808 490.89 134.368 490.89 132.352V83.968C490.89 82.24 490.602 81.088 490.026 80.512C489.546 79.84 488.634 79.408 487.29 79.216L484.266 78.784C483.018 78.688 482.394 78.16 482.394 77.2C482.394 76.432 483.162 75.904 484.698 75.616C487.674 75.136 489.93 74.368 491.466 73.312C493.098 72.256 494.778 70.96 496.506 69.424C497.37 68.56 498.09 68.128 498.666 68.128C499.53 68.128 499.962 68.704 499.962 69.856V76.336C499.962 77.2 500.25 77.776 500.826 78.064C501.498 78.256 502.218 77.968 502.986 77.2C506.826 73.552 510.186 71.056 513.066 69.712C516.042 68.368 519.162 67.696 522.426 67.696C526.746 67.696 530.202 69.232 532.794 72.304C535.386 75.28 536.682 79.696 536.682 85.552V132.352C536.682 134.368 536.97 135.808 537.546 136.672C538.218 137.44 539.562 137.968 541.578 138.256L544.746 138.688C545.802 138.88 546.33 139.456 546.33 140.416C546.33 141.472 545.754 142 544.602 142H520.41C519.066 142 518.394 141.472 518.394 140.416C518.394 139.456 518.922 138.88 519.978 138.688L521.994 138.4C524.01 138.112 525.306 137.536 525.882 136.672C526.554 135.808 526.89 134.368 526.89 132.352V87.136C526.89 82.432 526.026 79.12 524.298 77.2C522.57 75.28 520.122 74.32 516.954 74.32C513.882 74.32 511.098 75.232 508.602 77.056C506.202 78.784 504.282 81.136 502.842 84.112C501.402 86.992 500.682 90.208 500.682 93.76V132.352C500.682 134.368 500.97 135.808 501.546 136.672C502.218 137.536 503.562 138.064 505.578 138.256L509.466 138.688C510.522 138.88 511.05 139.408 511.05 140.272C511.05 141.424 510.33 142 508.89 142H484.554ZM569.043 143.296C565.683 143.296 562.899 142.144 560.691 139.84C558.579 137.44 557.523 133.552 557.523 128.176V74.32C557.523 73.168 556.947 72.592 555.795 72.592H551.619C550.083 72.592 549.315 72.016 549.315 70.864C549.315 70.096 549.747 69.424 550.611 68.848C553.779 66.64 556.323 64.288 558.243 61.792C560.163 59.2 561.843 55.696 563.283 51.28C563.955 49.264 564.771 48.256 565.731 48.256C566.787 48.256 567.315 49.024 567.315 50.56V66.544C567.315 67.888 567.987 68.56 569.331 68.56H578.691C580.227 68.56 580.995 69.232 580.995 70.576C580.995 71.92 580.227 72.592 578.691 72.592H569.331C567.987 72.592 567.315 73.264 567.315 74.608V128.32C567.315 130.432 567.651 132.112 568.323 133.36C568.995 134.512 570.243 135.088 572.067 135.088C574.083 135.088 575.715 134.08 576.963 132.064C578.307 130.048 579.171 126.784 579.555 122.272C579.747 120.928 580.371 120.256 581.427 120.256C582.579 120.256 583.155 120.976 583.155 122.416C582.867 129.808 581.331 135.136 578.547 138.4C575.859 141.664 572.691 143.296 569.043 143.296Z" fill="white"/>
<g clip-path="url(#clip0_16_133)">
<path d="M24.6514 165.466V106.142C24.6514 104.775 25.7892 103.666 27.1969 103.661C32.4855 103.646 44.4248 103.618 47.4655 103.669C51.4053 103.736 54.0696 104.383 56.6229 107.511C59.8478 111.462 86.2464 150.879 86.2464 150.879C86.2464 150.879 91.9802 158.797 85.153 165.43C79.1583 169.42 72.1646 168.342 68.9452 164.783C65.5949 161.155 53.4956 145.9 50.2263 141.767C49.7079 141.112 48.9108 140.724 48.0605 140.713C46.5119 140.693 45.2441 141.907 45.2441 143.413V163.303C45.2441 165.904 43.0683 168.01 40.3907 168L27.1946 167.947C25.7881 167.942 24.6514 166.833 24.6514 165.466Z" fill="#D9A2E8"/>
<path d="M27.2613 20.0404H27.2046C25.8003 20.0404 24.6525 21.1567 24.6525 22.5211V73.0087C32.1502 73.0529 38.6056 70.5366 40.4728 66.7972C41.4098 64.9216 43.7344 64.1385 45.6649 65.0489C47.5954 65.9592 48.4013 68.2177 47.4644 70.0933C45.6837 73.659 42.2401 76.514 37.5055 78.3497C33.7588 79.8015 29.4038 80.5608 24.8523 80.5608C24.7857 80.5608 24.7191 80.5586 24.6536 80.5586V92.4131C24.6536 93.7775 25.8026 94.8938 27.2058 94.8938H27.2624C52.0014 94.8938 72.0558 78.1372 72.0558 57.4676C72.0558 36.798 52.0003 20.0404 27.2613 20.0404ZM42.0259 51.2109C42.0259 53.2957 40.2863 54.9858 38.1405 54.9858C35.9946 54.9858 34.255 53.2957 34.255 51.2109V45.4945C34.255 43.4096 35.9946 41.7195 38.1405 41.7195C40.2863 41.7195 42.0259 43.4096 42.0259 45.4945V51.2109Z" fill="#D9A2E8"/>
<path d="M15.1609 45.4945C15.1609 43.4096 13.4214 41.7195 11.2755 41.7195C9.12963 41.7195 7.39007 43.4096 7.39007 45.4945V51.2109C7.39007 53.2957 9.12963 54.9859 11.2755 54.9859C13.4214 54.9859 15.1609 53.2957 15.1609 51.2109V45.4945Z" fill="#D9A2E8"/>
<path d="M24.6525 73.0346C24.4693 73.0335 24.2861 73.0302 24.1019 73.0259C16.6463 72.8447 10.5195 70.1688 8.85767 66.3669C8.01841 64.4481 5.73711 63.5529 3.76221 64.3683C1.7873 65.1837 0.865902 67.4001 1.70515 69.3189C3.27709 72.9127 6.45758 75.8615 10.9025 77.845C14.6425 79.5135 19.1396 80.4572 23.9076 80.5726C24.1562 80.5791 24.4049 80.5802 24.6525 80.5813V73.0324V73.0346Z" fill="#D9A2E8"/>
</g>
<defs>
<clipPath id="clip0_16_133">
<rect width="88.5" height="148.5" fill="white" transform="translate(0 19.5)"/>
</clipPath>
</defs>
</svg>
